<svg width="54" height="69" viewBox="0 0 54 69" fill="none" xmlns="http://www.w3.org/2000/svg">
<path fill-rule="evenodd" clip-rule="evenodd" d="M10.6399 10.609C12.7827 8.4634 15.3313 6.76016 18.1391 5.59732C20.9468 4.43448 23.9582 3.83502 27 3.83343C33.1329 3.83343 39.0189 6.26766 43.3601 10.609C47.7078 14.9622 50.1462 20.848 50.1429 26.9816C50.1429 37.5734 44.2337 47.1608 38.0777 54.2392C35.4835 57.2077 32.671 59.9805 29.6634 62.5347C28.7938 63.276 27.9057 63.9956 27 64.6929C26.0947 63.9952 25.2066 63.2755 24.3366 62.5347C21.329 59.9805 18.5165 57.2077 15.9223 54.2392C9.76629 47.1608 3.85715 37.5734 3.85715 26.9816C3.85715 20.8385 6.29872 14.9504 10.6399 10.609ZM25.8891 68.651L27 67.085L28.1109 68.651C27.7855 68.8781 27.3976 69 27 69C26.6024 69 26.2145 68.8781 25.8891 68.651ZM25.8891 68.651L27 67.085L28.1109 68.651L28.1186 68.6471L28.1379 68.6337L28.1957 68.5896L28.4233 68.4267C28.6161 68.2849 28.8977 68.0779 29.2526 67.8057C29.9623 67.2652 30.969 66.4697 32.1705 65.4481C35.3245 62.7688 38.2737 59.8602 40.9937 56.7462C47.3734 49.4129 54 38.9457 54 26.9797C54 19.8303 51.1573 12.9685 46.0967 7.90836C43.5954 5.40397 40.6205 3.41594 37.3431 2.0587C34.0657 0.701453 30.5505 0.00179852 27 0C23.4496 0.00154745 19.9346 0.7009 16.6572 2.05781C13.3798 3.41472 10.4047 5.4024 7.90329 7.90645C2.83775 12.9781 -0.00340011 19.8355 3.05373e-06 26.9816C3.05373e-06 38.9457 6.62657 49.4129 13.0063 56.7462C15.7263 59.8602 18.6755 62.7688 21.8295 65.4481C23.0329 66.4697 24.0377 67.2652 24.7474 67.8057C25.0955 68.0723 25.4472 68.3343 25.8024 68.5915L25.8641 68.6337L25.8814 68.6471L25.8891 68.651ZM19.2857 26.834C19.2857 24.8006 20.0985 22.8505 21.5452 21.4127C22.9919 19.9749 24.954 19.1671 27 19.1671C29.046 19.1671 31.0081 19.9749 32.4548 21.4127C33.9015 22.8505 34.7143 24.8006 34.7143 26.834C34.7143 28.8674 33.9015 30.8175 32.4548 32.2553C31.0081 33.6931 29.046 34.5009 27 34.5009C24.954 34.5009 22.9919 33.6931 21.5452 32.2553C20.0985 30.8175 19.2857 28.8674 19.2857 26.834ZM27 15.3337C23.9311 15.3337 20.9878 16.5453 18.8178 18.7021C16.6477 20.8588 15.4286 23.7839 15.4286 26.834C15.4286 29.8841 16.6477 32.8092 18.8178 34.9659C20.9878 37.1227 23.9311 38.3343 27 38.3343C30.0689 38.3343 33.0122 37.1227 35.1822 34.9659C37.3523 32.8092 38.5714 29.8841 38.5714 26.834C38.5714 23.7839 37.3523 20.8588 35.1822 18.7021C33.0122 16.5453 30.0689 15.3337 27 15.3337Z" fill="white"/>
</svg>
