<?xml version="1.0" standalone="no"?>
<!DOCTYPE svg PUBLIC "-//W3C//DTD SVG 20010904//EN"
 "http://www.w3.org/TR/2001/REC-SVG-20010904/DTD/svg10.dtd">
<svg version="1.0" xmlns="http://www.w3.org/2000/svg"
 width="1104.000000pt" height="1104.000000pt" viewBox="0 0 1104.000000 1104.000000"
 preserveAspectRatio="xMidYMid meet">
<metadata>
Created by potrace 1.14, written by Peter Selinger 2001-2017
</metadata>
<g transform="translate(0.000000,1104.000000) scale(0.100000,-0.100000)"
fill="#000000" stroke="none">
<path d="M5278 11035 c-2 -2 -39 -5 -83 -8 -78 -6 -122 -10 -215 -22 -25 -3
-58 -7 -75 -9 -63 -8 -121 -17 -136 -22 -10 -3 -30 -7 -45 -9 -51 -7 -87 -15
-214 -46 -69 -17 -132 -32 -140 -34 -8 -2 -28 -8 -43 -14 -15 -6 -31 -10 -35
-9 -4 1 -20 -4 -37 -11 -16 -7 -43 -15 -60 -18 -16 -4 -41 -12 -55 -20 -14 -7
-30 -13 -36 -13 -12 0 -107 -36 -136 -51 -10 -5 -22 -9 -27 -9 -4 0 -30 -10
-57 -22 -27 -12 -51 -23 -54 -23 -51 -12 -358 -168 -540 -274 -68 -40 -248
-158 -260 -171 -3 -3 -25 -19 -50 -35 -25 -16 -47 -32 -50 -35 -3 -3 -34 -28
-70 -55 -36 -27 -67 -52 -70 -55 -3 -3 -36 -32 -75 -65 -107 -91 -149 -131
-264 -246 -110 -111 -130 -133 -221 -239 -30 -36 -57 -67 -61 -70 -3 -3 -42
-54 -87 -115 -45 -60 -85 -114 -90 -120 -25 -30 -162 -245 -162 -253 0 -6 -4
-12 -8 -14 -26 -10 -234 -425 -315 -628 -49 -123 -144 -405 -153 -454 -3 -16
-7 -32 -9 -36 -2 -3 -6 -17 -9 -31 -3 -13 -14 -62 -25 -109 -11 -47 -22 -96
-25 -110 -3 -14 -7 -36 -10 -49 -3 -12 -8 -43 -11 -68 -2 -24 -7 -48 -9 -52
-3 -4 -8 -38 -11 -76 -4 -38 -9 -73 -12 -78 -3 -5 -7 -28 -8 -51 -1 -22 -6
-88 -11 -146 -5 -58 -9 -217 -9 -355 1 -287 9 -432 40 -665 3 -25 8 -61 10
-80 2 -19 6 -46 9 -60 3 -14 7 -41 10 -60 3 -19 8 -46 11 -60 3 -14 7 -40 10
-59 2 -18 7 -41 9 -50 7 -23 19 -82 21 -107 1 -11 5 -25 9 -32 4 -7 5 -12 2
-12 -3 0 1 -15 9 -34 8 -18 12 -36 9 -39 -3 -3 -1 -15 5 -26 6 -11 13 -33 15
-48 3 -15 16 -71 31 -123 15 -52 28 -102 30 -110 2 -8 10 -34 19 -57 8 -24 13
-43 9 -43 -3 0 -1 -6 4 -12 5 -7 15 -33 23 -58 23 -76 100 -292 121 -337 10
-24 19 -49 19 -57 0 -8 4 -18 10 -21 5 -3 10 -12 10 -19 0 -8 12 -40 27 -72
15 -33 28 -61 29 -64 1 -8 16 -42 40 -98 13 -28 24 -54 25 -57 0 -2 41 -86 90
-185 49 -99 89 -185 89 -190 0 -6 3 -10 8 -10 4 0 13 -13 20 -30 17 -39 179
-327 202 -360 9 -14 19 -30 21 -35 2 -6 28 -49 57 -95 29 -47 59 -94 65 -104
7 -11 15 -25 19 -30 33 -46 78 -120 78 -127 0 -5 3 -9 8 -9 4 0 16 -16 26 -35
11 -19 23 -35 28 -35 4 0 8 -5 8 -11 0 -8 135 -204 181 -263 4 -6 58 -78 120
-161 61 -82 117 -155 125 -161 8 -6 14 -14 14 -18 0 -4 34 -48 76 -99 181
-218 225 -270 294 -347 32 -36 73 -82 92 -103 191 -221 717 -755 870 -883 20
-18 34 -34 31 -38 -4 -3 -2 -6 4 -6 9 0 20 -9 120 -100 27 -25 80 -72 118
-105 38 -33 79 -69 91 -80 77 -68 300 -252 412 -340 7 -5 19 -16 27 -22 7 -7
18 -13 23 -13 6 0 12 -4 14 -8 8 -21 298 -231 298 -216 0 4 7 0 16 -7 22 -18
188 -19 205 -1 7 6 20 12 29 12 9 0 25 7 35 15 11 8 79 59 150 112 72 54 135
102 141 108 6 5 26 21 44 35 18 14 43 33 54 42 12 10 50 41 86 70 36 29 67 55
70 58 3 3 30 25 60 50 30 25 57 47 60 50 3 3 57 50 120 105 159 138 170 148
376 340 156 146 453 443 589 589 55 60 118 127 140 150 22 24 63 69 90 101 28
32 57 66 65 74 9 9 43 47 75 86 33 38 68 79 78 90 10 11 28 33 40 49 12 16 29
36 37 45 8 9 31 37 50 61 19 25 39 50 45 56 35 39 128 158 150 193 6 8 15 20
21 26 15 13 170 225 217 295 20 30 43 62 50 70 8 8 36 49 62 90 27 41 52 77
57 78 4 2 8 10 8 18 0 8 5 14 10 14 6 0 10 4 10 10 0 5 17 35 39 67 21 32 64
101 96 153 32 52 69 111 82 131 12 19 23 40 23 47 0 7 4 12 9 12 5 0 11 8 14
18 5 16 28 57 93 170 77 132 213 405 307 617 60 134 156 375 150 375 -3 0 -1
6 5 13 12 15 133 371 135 398 1 10 6 19 11 19 5 0 7 2 4 6 -3 3 1 26 9 52 15
49 21 71 29 111 3 14 7 28 10 33 3 4 7 16 9 26 1 9 8 35 13 57 6 22 13 51 16
65 3 14 7 35 10 48 9 36 16 65 21 92 2 14 9 50 15 80 6 30 13 64 15 75 2 11 6
38 10 60 3 22 10 65 15 95 5 30 12 80 15 110 3 30 8 69 11 85 5 35 12 113 22
240 3 50 6 207 6 350 0 274 -6 390 -30 560 -3 22 -7 51 -9 65 -10 75 -17 118
-30 183 -3 15 -7 39 -10 55 -3 15 -10 48 -16 73 -6 26 -11 53 -12 60 -2 8 -5
19 -9 24 -3 6 -9 26 -12 45 -3 19 -13 60 -22 90 -9 30 -18 62 -19 70 -1 8 -5
22 -8 30 -3 8 -22 62 -41 120 -86 257 -219 557 -342 770 -54 93 -98 165 -104
170 -4 3 -10 12 -13 20 -18 39 -205 301 -262 367 -5 7 -14 18 -20 25 -5 8 -37
45 -70 83 -213 250 -456 476 -705 659 -58 43 -113 84 -122 92 -10 7 -18 11
-18 8 0 -3 -7 1 -15 9 -20 21 -190 127 -203 127 -6 0 -12 4 -14 8 -3 8 -165
102 -175 102 -3 0 -18 9 -34 21 -16 11 -35 22 -42 23 -7 2 -55 23 -107 49
-106 51 -217 99 -300 129 -172 64 -277 100 -295 101 -11 2 -24 5 -30 8 -5 4
-50 16 -100 29 -49 12 -97 25 -105 28 -8 3 -22 6 -30 8 -8 2 -31 6 -50 10 -19
4 -42 9 -50 10 -8 1 -26 5 -40 9 -22 5 -117 22 -220 40 -45 7 -89 12 -175 20
-38 4 -88 9 -110 11 -46 6 -582 14 -587 9z m517 -619 c120 -9 154 -13 190 -19
17 -3 52 -8 78 -12 27 -4 59 -9 70 -11 12 -3 38 -7 57 -9 19 -2 67 -11 105
-20 74 -18 94 -23 123 -29 9 -2 37 -10 62 -17 52 -15 45 -13 90 -23 19 -5 41
-12 50 -16 15 -7 133 -47 160 -54 37 -10 221 -87 317 -133 29 -14 56 -25 60
-25 4 0 15 -5 23 -12 8 -7 44 -27 80 -46 67 -34 281 -159 290 -169 11 -13 101
-71 109 -71 5 0 11 -3 13 -7 2 -5 26 -25 53 -45 71 -54 157 -121 181 -143 6
-5 47 -41 90 -80 98 -88 218 -209 292 -294 31 -36 65 -75 76 -86 73 -79 267
-356 359 -515 59 -101 198 -380 190 -380 -3 0 -1 -6 5 -12 9 -11 79 -184 86
-213 2 -5 6 -17 9 -25 18 -45 89 -274 93 -305 2 -11 10 -47 19 -80 8 -33 17
-71 20 -85 3 -14 7 -36 10 -50 7 -28 14 -69 20 -115 2 -16 9 -66 15 -110 12
-82 14 -100 24 -245 12 -158 7 -485 -9 -637 -3 -29 -7 -77 -10 -105 -6 -62
-14 -123 -20 -158 -3 -14 -7 -38 -9 -55 -3 -16 -10 -61 -16 -100 -6 -38 -16
-90 -21 -115 -6 -25 -13 -58 -16 -75 -2 -16 -9 -48 -15 -70 -10 -38 -13 -54
-23 -100 -3 -11 -16 -60 -30 -110 -23 -80 -28 -99 -39 -140 -1 -5 -15 -50 -31
-100 -16 -49 -30 -92 -30 -95 -2 -7 -15 -41 -27 -70 -5 -14 -12 -36 -15 -50
-2 -13 -7 -27 -11 -30 -4 -3 -8 -12 -10 -20 -2 -8 -22 -62 -45 -120 -22 -58
-40 -107 -38 -109 1 -2 -1 -7 -6 -10 -4 -3 -19 -33 -32 -66 -14 -33 -39 -90
-57 -127 -18 -38 -29 -68 -26 -68 4 0 3 -4 -3 -8 -5 -4 -28 -45 -50 -92 -22
-46 -57 -115 -77 -152 -20 -37 -33 -68 -30 -68 4 0 2 -4 -4 -8 -5 -4 -18 -23
-27 -42 -20 -40 -38 -71 -149 -260 -114 -194 -139 -234 -152 -242 -6 -4 -8 -8
-4 -8 4 0 -27 -50 -68 -110 -40 -61 -74 -114 -74 -119 0 -5 -4 -11 -8 -13 -4
-1 -39 -48 -77 -103 -38 -55 -77 -109 -87 -119 -10 -11 -18 -23 -18 -27 0 -4
-6 -14 -13 -21 -7 -7 -39 -49 -72 -93 -33 -44 -93 -123 -135 -175 -85 -107
-79 -100 -191 -235 -78 -95 -99 -119 -161 -187 -15 -16 -41 -47 -58 -68 -17
-21 -45 -53 -63 -72 -18 -18 -81 -87 -142 -152 -180 -195 -559 -570 -741 -733
-17 -15 -62 -55 -98 -88 -37 -33 -78 -69 -90 -80 -12 -11 -44 -38 -70 -60 -26
-22 -68 -59 -94 -82 -26 -24 -55 -46 -65 -49 -9 -3 -15 -10 -12 -15 4 -5 2 -9
-2 -9 -5 0 -29 -17 -54 -38 -25 -20 -63 -50 -84 -67 -21 -16 -45 -38 -54 -47
-8 -10 -20 -18 -27 -18 -6 0 -19 -10 -30 -21 -10 -12 -32 -30 -48 -40 l-29
-17 -66 51 c-36 28 -68 54 -71 57 -3 3 -21 17 -40 32 -19 14 -44 34 -55 45
-11 10 -40 34 -65 53 -45 35 -89 72 -120 100 -9 8 -45 40 -81 70 -35 30 -69
59 -75 65 -6 5 -42 37 -79 70 -301 265 -612 574 -965 956 -19 21 -55 61 -80
90 -25 28 -54 61 -65 73 -11 12 -78 91 -149 176 -178 214 -179 215 -196 240
-8 12 -23 32 -34 43 -10 12 -44 56 -74 97 -31 41 -60 77 -64 78 -5 2 -8 8 -8
13 0 8 -6 17 -52 71 -10 12 -18 25 -18 29 0 4 -6 14 -13 21 -7 7 -24 29 -37
48 -13 19 -27 37 -30 40 -12 12 -70 101 -70 109 0 5 -4 11 -8 13 -5 1 -36 46
-70 98 -33 52 -65 100 -69 106 -9 11 -10 13 -75 119 -23 39 -46 72 -50 73 -5
2 -8 7 -8 11 0 4 -40 78 -89 164 -50 87 -103 183 -119 215 -16 31 -39 74 -51
95 -11 21 -21 43 -21 49 0 6 -6 19 -13 27 -7 9 -35 63 -61 121 -26 58 -51 113
-56 122 -5 9 -32 72 -60 140 -28 68 -55 132 -59 143 -5 11 -19 47 -31 80 -12
33 -26 69 -31 80 -9 21 -40 115 -91 275 -30 96 -64 216 -79 280 -39 168 -72
323 -83 395 -3 17 -8 48 -11 70 -8 51 -13 89 -20 145 -3 25 -8 61 -11 80 -5
36 -8 76 -19 265 -12 195 -8 425 9 585 3 19 7 61 10 92 6 58 9 80 27 183 6 33
12 69 14 80 1 11 6 36 10 55 11 46 9 37 25 105 8 33 14 62 15 65 1 3 5 19 9
35 4 17 16 57 27 91 11 33 21 69 24 80 5 23 56 165 91 251 48 121 133 297 198
413 14 25 29 52 33 60 10 22 68 114 132 209 31 46 66 97 77 115 12 17 29 37
38 45 9 7 16 19 16 26 0 8 3 15 8 17 4 2 39 41 77 88 159 193 348 380 536 530
11 8 31 25 47 37 15 12 59 44 97 72 39 28 75 54 81 59 5 5 21 15 35 22 13 7
26 16 29 20 9 12 244 150 256 150 7 0 14 4 16 8 3 8 248 132 260 132 3 0 27
10 54 22 27 12 51 23 54 23 3 1 19 7 35 14 27 10 125 47 195 72 99 35 378 106
445 114 11 1 27 5 35 8 17 6 147 26 217 33 26 3 59 7 73 9 14 3 72 8 130 11
58 4 106 7 107 8 6 5 348 -2 428 -8z"/>
<path d="M5417 8584 c-1 -1 -36 -4 -77 -8 -41 -3 -86 -8 -100 -11 -13 -3 -42
-7 -64 -11 -22 -3 -44 -7 -47 -10 -4 -2 -24 -6 -45 -9 -22 -3 -48 -10 -59 -15
-11 -4 -45 -16 -75 -25 -84 -25 -229 -86 -283 -117 -26 -15 -51 -28 -55 -28
-4 0 -31 -16 -59 -35 -29 -19 -57 -35 -63 -35 -5 0 -10 -4 -10 -8 0 -5 -10
-13 -22 -19 -13 -6 -34 -20 -48 -32 -187 -157 -273 -242 -351 -347 -24 -32
-47 -61 -50 -64 -6 -5 -51 -73 -81 -125 -92 -155 -193 -407 -214 -533 -3 -15
-7 -34 -10 -42 -6 -18 -18 -105 -18 -142 -1 -16 -3 -28 -6 -28 -9 0 -14 -293
-6 -340 3 -14 7 -50 11 -80 9 -78 11 -91 18 -125 4 -16 9 -41 11 -55 3 -14 12
-50 21 -80 9 -30 17 -61 17 -67 1 -7 4 -13 8 -13 3 0 6 -9 7 -20 1 -10 9 -34
17 -52 8 -18 24 -56 35 -85 26 -67 110 -227 122 -231 5 -2 9 -8 9 -14 0 -12
61 -102 72 -106 4 -2 8 -10 8 -17 0 -7 3 -15 8 -17 4 -1 25 -25 47 -53 59 -74
201 -214 275 -270 35 -28 72 -57 82 -65 21 -19 150 -96 238 -142 97 -51 290
-124 378 -143 54 -12 70 -15 117 -24 228 -45 477 -45 695 0 25 5 56 11 70 14
32 5 146 39 185 55 17 6 31 11 33 11 1 -1 19 6 40 15 20 9 42 17 47 18 47 11
306 156 358 200 14 11 35 28 47 36 78 54 250 223 325 320 27 36 53 67 57 68 5
2 8 8 8 13 0 6 5 15 10 22 24 29 70 103 70 115 0 6 3 12 8 12 4 0 16 20 27 45
11 25 23 45 26 45 4 0 10 11 13 25 4 14 17 49 31 78 30 65 76 197 69 197 -2 0
0 8 5 18 6 11 12 30 14 43 3 13 10 42 15 64 6 22 13 57 16 78 3 20 8 52 11 71
15 89 20 317 10 406 -17 143 -58 345 -84 405 -5 11 -16 43 -26 70 -21 62 -135
299 -147 303 -4 2 -8 8 -8 13 0 9 -82 131 -104 156 -6 6 -21 24 -33 40 -57 75
-138 158 -225 234 -101 86 -111 94 -131 102 -9 3 -17 10 -17 16 0 5 -8 11 -17
15 -20 6 -55 27 -63 37 -7 10 -191 109 -210 114 -3 1 -25 11 -50 22 -55 24
-175 66 -250 86 -48 14 -79 20 -195 42 -68 13 -377 28 -388 19z m218 -618
c154 -14 269 -45 420 -115 177 -83 326 -207 473 -396 21 -27 102 -166 102
-175 0 -6 7 -21 15 -34 24 -36 84 -231 91 -294 3 -31 8 -60 11 -65 8 -13 2
-322 -7 -322 -1 0 -3 -14 -5 -32 -5 -52 -52 -205 -85 -279 -17 -38 -31 -71
-30 -73 1 -2 -2 -7 -7 -10 -9 -7 -73 -109 -73 -117 0 -3 -6 -11 -12 -18 -7 -7
-24 -28 -38 -47 -37 -49 -176 -189 -189 -189 -6 0 -11 -3 -11 -7 0 -8 -174
-127 -187 -129 -5 0 -42 -17 -83 -36 -251 -119 -600 -138 -878 -49 -255 82
-499 266 -652 491 -48 70 -122 228 -145 305 -9 33 -22 73 -27 88 -6 15 -8 30
-5 34 4 3 2 13 -3 23 -19 36 -30 307 -15 380 2 14 7 41 10 60 7 42 33 149 42
170 3 8 7 17 8 20 19 55 97 219 110 234 6 6 22 29 35 51 35 58 54 79 157 182
93 93 160 143 267 203 62 34 184 87 220 95 12 3 57 14 101 25 44 11 114 23
155 26 41 4 76 7 77 8 3 3 79 -1 158 -8z"/>
</g>
</svg>
